<?xml version="1.0" standalone="no"?>
<!DOCTYPE svg PUBLIC "-//W3C//DTD SVG 20010904//EN"
 "http://www.w3.org/TR/2001/REC-SVG-20010904/DTD/svg10.dtd">
<svg version="1.0" xmlns="http://www.w3.org/2000/svg"
 width="98.000000pt" height="31.000000pt" viewBox="0 0 98.000000 31.000000"
 preserveAspectRatio="xMidYMid meet">

<g transform="translate(0.000000,31.000000) scale(0.100000,-0.100000)"
fill="#000000" stroke="none">
<path d="M372 275 c-13 -17 -24 -49 -28 -86 -5 -44 -12 -64 -27 -74 -24 -17
-37 -11 -37 14 0 24 26 47 33 29 2 -7 8 -10 12 -6 18 17 -5 39 -37 36 -33 -3
-39 -12 -53 -79 -2 -15 -13 -37 -23 -49 -19 -23 -19 -22 -29 98 -5 67 -13 125
-17 129 -14 15 -41 -15 -76 -85 -27 -55 -40 -71 -57 -71 -26 -1 -32 -31 -7
-31 13 0 12 -7 -7 -40 -16 -27 -20 -43 -13 -50 19 -19 42 1 54 46 12 40 15 44
45 44 30 0 33 -3 38 -41 3 -23 10 -46 15 -51 17 -17 50 1 73 38 12 19 23 33
26 30 2 -2 -1 -13 -8 -24 -16 -25 -5 -52 20 -52 26 0 55 43 47 68 -4 13 -1 22
9 26 12 4 15 -3 15 -38 0 -39 11 -56 35 -56 1 0 5 17 8 38 4 20 18 53 33 72
l26 35 -7 -67 c-6 -62 -5 -67 15 -73 15 -5 28 -2 38 9 14 14 17 14 27 -1 15
-21 48 -10 65 23 l14 25 13 -24 c27 -52 104 -40 135 21 25 51 31 51 25 0 -5
-36 -3 -47 9 -52 28 -11 34 -6 34 26 0 29 36 98 52 98 3 0 4 -27 1 -59 -5 -54
-4 -59 16 -66 13 -4 28 -1 37 6 17 14 64 102 64 119 0 23 -18 8 -35 -30 -31
-69 -41 -67 -37 11 4 68 4 69 -21 69 -16 0 -33 -10 -46 -28 l-20 -27 -1 33 c0
35 -2 37 -31 22 -11 -6 -19 -21 -19 -35 0 -14 -4 -25 -10 -25 -5 0 -10 8 -10
18 0 33 -35 55 -73 48 -41 -8 -56 -23 -91 -93 -14 -29 -29 -53 -32 -53 -4 0
-3 34 1 75 4 45 3 75 -3 75 -21 0 -42 -39 -42 -77 0 -24 -6 -46 -15 -53 -13
-11 -15 -4 -15 54 0 63 -1 66 -24 66 -16 0 -31 -11 -46 -32 -12 -18 -19 -24
-15 -13 4 11 14 38 22 59 29 81 -2 136 -45 81z m32 -54 c-4 -17 -9 -30 -11
-27 -3 2 -2 19 2 36 9 41 17 33 9 -9z m-264 -41 c0 -47 -2 -50 -26 -50 -22 0
-24 3 -18 23 9 29 33 77 39 77 3 0 5 -22 5 -50z m568 -50 c3 -21 2 -22 -12
-11 -19 16 -21 44 -3 39 6 -3 14 -15 15 -28z m-28 -40 c30 -7 34 -43 5 -54
-24 -9 -45 22 -44 67 1 34 2 37 8 17 4 -15 16 -27 31 -30z m-403 -62 c-3 -8
-6 -5 -6 6 -1 11 2 17 5 13 3 -3 4 -12 1 -19z"/>
<path d="M530 255 c-15 -18 -6 -45 14 -45 14 0 26 21 26 46 0 18 -24 18 -40
-1z"/>
</g>
</svg>
